<svg width="100" height="100" viewBox="0 0 100 100" fill="none" xmlns="http://www.w3.org/2000/svg">
<path d="M19.5236 50.2992C24.639 36.7952 23.9386 30.6927 17.417 21.9784C26.7397 20.4159 30.983 24.3505 36.3764 39.81C46.2416 24.7481 46.1106 16.2587 31.1099 1C57.525 6.78888 69.6983 12.5459 65.8686 47.1524C70.0818 56.5927 78.5081 52.397 73.2417 35.6143C81.537 42.8645 84.9506 47.8137 83.7746 61.8373C78.5081 114.283 -1.54226 109.039 19.5236 50.2992Z" fill="#FB7E0B"/>
<path d="M34.2093 66.3335C38.6754 59.9251 39.1592 56.6267 37.0374 51.1787C42.0018 51.6039 43.6214 54.2372 44.2393 63.0767C51.3397 56.4848 52.4423 52.0089 46.9026 41.9911C59.5615 48.5608 64.9698 53.2108 58.2518 70.8735C59.0976 76.3943 63.9681 75.3167 63.5971 65.7992C66.8242 70.7152 67.8814 73.7705 65.3505 80.9782C55.4432 107.818 15.3865 94.3671 34.2093 66.3335Z" fill="#FEF49E"/>
</svg>
