<svg width="100" height="100" viewBox="0 0 100 100" fill="none" xmlns="http://www.w3.org/2000/svg">
<path fill-rule="evenodd" clip-rule="evenodd" d="M50.9483 92.8922C73.0701 93.0103 101.236 45.9238 93.8969 20.6875C84.5859 31.2078 75.9378 33.5981 67.9463 35.8069C60.3434 37.9083 53.3347 39.8454 46.9149 48.4629C36.9409 61.8511 38.7246 79.1497 42.7493 87.4938C56.6987 78.1892 73.6446 59.9212 81.3329 46.1908C80.6863 51.945 75.1578 59.2942 67.6391 69.289C62.6671 75.8985 56.8247 83.665 50.9483 92.8922Z" fill="#389A48"/>
<path fill-rule="evenodd" clip-rule="evenodd" d="M38.9948 84.3675C58.0057 73.6359 56.5065 19.5154 36.4886 1.49508C34.2387 15.0649 28.1326 21.347 22.49 27.1521C17.1219 32.675 12.1733 37.7661 11.3641 48.2904C10.1069 64.6411 21.0477 78.5833 29.0351 83.7589C35.9192 68.9589 40.4922 45.0148 39.6056 29.4903C42.1829 34.7352 41.4471 43.7368 40.4463 55.9788C39.7844 64.0744 39.0068 73.5871 38.9948 84.3675Z" fill="#31C649"/>
</svg>
