<svg width="159" height="83" viewBox="0 0 159 83" fill="none" xmlns="http://www.w3.org/2000/svg">
<g clip-path="url(#clip0_26_78)">
<rect width="159" height="83" fill="white"/>
<path d="M40.3235 46.5326L45.9366 58.6944C46.8721 59.6299 44.0656 65.243 44.0656 65.243L46.8721 71.7916C46.8721 71.7916 46.8721 87.6954 16 82.0823L17.871 68.9851L22.5031 65.897C16.3714 59.899 17.3759 50.847 28.1617 46.5326C32.8393 44.6616 40.3235 46.5326 40.3235 46.5326Z" fill="#2C5B93"/>
<path d="M40.3235 46.5326L45.9366 58.6944C46.8721 59.6299 44.0656 65.243 44.0656 65.243L46.8721 71.7916C46.8721 71.7916 46.8721 87.6954 16 82.0823L17.871 68.9851L23.4841 65.243L31.9038 70.8561C16.9355 67.114 13.4512 52.4169 28.1617 46.5326C32.8393 44.6616 40.3235 46.5326 40.3235 46.5326Z" stroke="#2C5B93"/>
<path d="M48.7431 49.3392L45.9366 60.5655C38.4524 54.9523 23.7399 54.4877 37.5169 60.5654C58.028 69.6139 42.1945 85.8244 19.7421 78.3403L21.6131 67.1141C41.259 75.5337 43.13 70.5443 30.0328 64.3075C10.3869 54.9523 28.1617 38.113 48.7431 49.3392Z" fill="#EFCD3D" stroke="#2F68AC"/>
<path d="M54.3563 51.2262L59.9694 46.5486L64.647 55.9038L73.0666 54.9683V60.5814L69.3246 64.3235L74.9377 65.259C75.8732 80.2273 54.3563 94.2601 55.2918 66.1945L47.8076 67.1301V58.7104L51.5497 55.9038H54.3563V51.2262Z" fill="#2C5B93" stroke="#2C5B93"/>
<path d="M58.0983 54.9683L51.5497 55.9038V63.388L58.0983 62.4524C58.0983 88.647 74.0021 80.2273 74.9377 65.259L69.3245 64.3235C68.389 72.7432 66.518 69.9366 66.518 61.5169L73.0666 60.5814V51.2262L66.518 53.0973V40L58.0983 48.4197V54.9683Z" fill="#EFCD3D" stroke="#2F68AC"/>
<path d="M76.4255 65.9673C79.3763 61.3547 82.8159 56.9257 84.6455 56.9257L98.6055 67.3956C99.2216 67.8577 99.5282 68.6358 99.3294 69.3799C98.3335 73.1071 96.4678 75.0384 92.4315 79.0763C92.2336 79.2742 91.9884 79.4336 91.7256 79.5296C80.0011 83.8105 74.5216 75.7503 76.1562 66.6478C76.1996 66.4059 76.2931 66.1743 76.4255 65.9673Z" fill="#2C5B93" stroke="#2C5B93"/>
<path d="M95.8717 56.9256C84.6563 49.0704 71.4709 66.812 82.7745 75.636C94.0781 84.4601 107.087 64.7809 95.8717 56.9256Z" fill="#EFCD3D" stroke="#2F68AC"/>
<path d="M94.9362 61.6032C91.1941 68.1519 87.4521 63.4743 91.1942 59.7322C84.1778 59.7322 85.581 67.2164 88.3876 68.1519C91.4171 69.1617 96.3395 69.0874 94.9362 61.6032Z" fill="#2F68AC"/>
<path d="M100.197 56.8393L102.068 54.9683L124.52 62.4524C125.456 64.3235 125.456 66.1945 125.456 66.1945L116.1 72.7431L111.423 65.259L113.294 79.2918L112.358 82.0983L102.068 83.0338L100.197 56.8393Z" fill="#2C5B93" stroke="#2C5B93"/>
<path d="M111.423 57.7748L103.003 54.9683L105.81 80.2273L113.294 79.2918C112.565 64.7615 113.24 60.6529 118.907 69.9366L125.456 65.259C123.585 55.9038 116.1 53.0973 111.423 57.7748Z" fill="#EFCD3D" stroke="#2F68AC"/>
<path d="M132.385 58.3618L137.998 55.5553L139.869 56.4908L146.702 61L137.998 70.5236L140.804 73.3301L148.289 65.846L152.966 70.5236C137.998 92.976 115.545 73.3301 132.385 58.3618Z" fill="#2C5B93" stroke="#2C5B93"/>
<path fill-rule="evenodd" clip-rule="evenodd" d="M151.095 59.2973L140.804 70.5236C143.058 70.4795 144.743 69.3314 148.289 65.846L152.966 70.5236C140.911 83.3173 131.555 77.515 129.578 69.588C128.04 60.469 135.502 48.3821 151.095 59.2973ZM137.062 66.7815L142.675 61.1684C138.933 58.3618 134.256 62.1039 137.062 66.7815Z" fill="#EFCD3D"/>
<path d="M140.804 70.5236L140.436 70.1857L139.647 71.0463L140.814 71.0235L140.804 70.5236ZM151.095 59.2973L151.464 59.6352L151.849 59.2148L151.382 58.8877L151.095 59.2973ZM148.289 65.846L148.642 65.4924L148.292 65.1419L147.938 65.4894L148.289 65.846ZM152.966 70.5236L153.33 70.8664L153.663 70.5132L153.32 70.17L152.966 70.5236ZM129.578 69.588L129.085 69.6712L129.088 69.6902L129.093 69.709L129.578 69.588ZM137.062 66.7815L136.634 67.0387L136.963 67.5879L137.416 67.135L137.062 66.7815ZM142.675 61.1684L143.029 61.5219L143.437 61.1143L142.975 60.7684L142.675 61.1684ZM141.173 70.8614L151.464 59.6352L150.727 58.9595L140.436 70.1857L141.173 70.8614ZM147.938 65.4894C144.38 68.9871 142.826 69.9839 140.795 70.0236L140.814 71.0235C143.29 70.9751 145.106 69.6758 148.639 66.2025L147.938 65.4894ZM153.32 70.17L148.642 65.4924L147.935 66.1995L152.613 70.8771L153.32 70.17ZM129.093 69.709C130.115 73.8096 133.065 77.4255 137.392 78.3158C141.725 79.2075 147.243 77.3266 153.33 70.8664L152.602 70.1807C146.634 76.5143 141.446 78.1291 137.594 77.3363C133.734 76.5422 131.017 73.2935 130.063 69.4671L129.093 69.709ZM151.382 58.8877C143.489 53.3626 137.471 53.5503 133.607 56.5341C129.803 59.4711 128.293 64.9779 129.085 69.6712L130.071 69.5048C129.325 65.0791 130.777 59.9829 134.218 57.3256C137.599 54.7149 143.108 54.3168 150.808 59.7069L151.382 58.8877ZM137.416 67.135L143.029 61.5219L142.322 60.8148L136.709 66.4279L137.416 67.135ZM142.975 60.7684C140.923 59.2293 138.55 59.4588 137.077 60.7984C135.589 62.1511 135.126 64.5263 136.634 67.0387L137.491 66.5242C136.192 64.3591 136.665 62.5245 137.749 61.5384C138.849 60.5392 140.685 60.3009 142.375 61.5684L142.975 60.7684Z" fill="#2F68AC"/>
<path d="M3.74207 20.9914L0 10.9475L3.04541 8.20062C6.36596 6.61715 10.1055 5.02043 15.5 4.22125L28.8764 12.5251L23.0212 23.1018L25.7168 39.2638L24.7984 42.0047L15.9038 44.6261L7.34766 20.9914H3.74207Z" fill="#2C5B93" stroke="#2C5B93"/>
<path fill-rule="evenodd" clip-rule="evenodd" d="M3.3838 8.06854L6.1747 17.3167H11.7565L19.1989 41.3618L25.711 39.5121L23.8504 25.64C41.526 7.14365 27.5716 -3.02925 3.3838 8.06854ZM18.2725 12.9768L21.1794 21.059C27.9624 12.9768 25.0554 9.38472 18.2725 12.9768Z" fill="#EFCD3D"/>
<path d="M6.1747 17.3167L5.69602 17.4611L5.80332 17.8167H6.1747V17.3167ZM3.3838 8.06854L3.17529 7.61409L2.77923 7.79581L2.90513 8.213L3.3838 8.06854ZM11.7565 17.3167L12.2341 17.1688L12.1251 16.8167H11.7565V17.3167ZM19.1989 41.3618L18.7212 41.5096L18.8656 41.9762L19.3355 41.8428L19.1989 41.3618ZM25.711 39.5121L25.8476 39.9931L26.2641 39.8748L26.2065 39.4457L25.711 39.5121ZM23.8504 25.64L23.4889 25.2945L23.3229 25.4682L23.3548 25.7064L23.8504 25.64ZM18.2725 12.9768L18.0385 12.5349L17.6552 12.7379L17.802 13.146L18.2725 12.9768ZM21.1794 21.059L20.709 21.2282L21.0033 22.0467L21.5624 21.3805L21.1794 21.059ZM6.65338 17.1722L3.86248 7.92409L2.90513 8.213L5.69602 17.4611L6.65338 17.1722ZM11.7565 16.8167H6.1747V17.8167H11.7565V16.8167ZM19.6765 41.2139L12.2341 17.1688L11.2788 17.4645L18.7212 41.5096L19.6765 41.2139ZM25.5744 39.0312L19.0623 40.8808L19.3355 41.8428L25.8476 39.9931L25.5744 39.0312ZM23.3548 25.7064L25.2154 39.5786L26.2065 39.4457L24.3459 25.5735L23.3548 25.7064ZM3.59231 8.52299C9.59985 5.76662 14.9482 4.34245 19.3073 4.02987C23.6796 3.71634 26.9903 4.52422 29.0021 6.14575C30.9759 7.73669 31.7882 10.1845 31.0242 13.4156C30.2537 16.6747 27.878 20.7016 23.4889 25.2945L24.2118 25.9854C28.6606 21.3301 31.169 17.1494 31.9974 13.6457C32.8324 10.1142 31.9585 7.24427 29.6296 5.36717C27.3388 3.52066 23.7305 2.71013 19.2358 3.03243C14.728 3.35567 9.26164 4.82156 3.17529 7.61409L3.59231 8.52299ZM17.802 13.146L20.709 21.2282L21.6499 20.8898L18.743 12.8076L17.802 13.146ZM21.5624 21.3805C23.2776 19.3368 24.4021 17.5519 25.0039 16.0694C25.5976 14.6069 25.7207 13.3407 25.2607 12.4172C24.7767 11.4453 23.7532 11.0418 22.5233 11.088C21.2981 11.1341 19.7683 11.6189 18.0385 12.5349L18.5065 13.4187C20.1681 12.5387 21.5452 12.1255 22.5609 12.0873C23.5718 12.0493 24.1229 12.3756 24.3656 12.8629C24.6324 13.3987 24.6343 14.3214 24.0774 15.6933C23.5285 17.0452 22.4728 18.7401 20.7965 20.7376L21.5624 21.3805Z" fill="#2F68AC"/>
<path d="M27.2881 29.7094C30.239 25.0968 33.6785 20.6678 35.5081 20.6678L49.4681 31.1377C50.0842 31.5998 50.3908 32.3779 50.192 33.122C49.1961 36.8492 47.3304 38.7805 43.2941 42.8184C43.0962 43.0163 42.8511 43.1757 42.5882 43.2717C30.8637 47.5526 25.3842 39.4924 27.0188 30.3899C27.0623 30.148 27.1557 29.9164 27.2881 29.7094Z" fill="#2C5B93" stroke="#2C5B93"/>
<path d="M46.7343 20.6677C35.519 12.8125 22.3335 30.5541 33.6371 39.3781C44.9407 48.2022 57.9497 28.523 46.7343 20.6677Z" fill="#EFCD3D" stroke="#2F68AC"/>
<path d="M45.7989 25.3453C42.0568 31.894 38.3147 27.2164 42.0568 23.4743C35.0404 23.4743 36.4436 30.9585 39.2502 31.894C42.2797 32.9038 47.2021 32.8295 45.7989 25.3453Z" fill="#2F68AC"/>
<path d="M59.479 2.80655H55.7369L51.9948 5.6131L51.0593 11.2262H54.8014L51.9948 40.2273H62.2855L64.1566 37.4207L63.221 32.7431L78.1893 46.7759L80.9959 43.9694L82.8669 32.7431L69.7484 22.4524L59.479 2.80655Z" fill="#2C5B93" stroke="#2C5B93"/>
<path d="M54.8014 7.48415L55.7369 2.80656L66.9631 0.935519L65.0921 12.1617L72.5762 0L80.0604 9.35519L67.8986 19.6459L83.8024 32.7432L80.9959 43.0339L65.0921 28.0656L64.1566 37.4207H54.8014L58.5434 7.48415H54.8014Z" fill="#EFCD3D" stroke="#2F68AC"/>
<path d="M90.7315 20.2329L96.3446 17.4263L98.2156 18.3618L104.095 22.9686L95.3172 32.3643L99.1512 35.2012L106.635 27.717L111.313 32.3946C96.3446 54.847 73.8922 35.2012 90.7315 20.2329Z" fill="#2C5B93" stroke="#2C5B93"/>
<path fill-rule="evenodd" clip-rule="evenodd" d="M109.442 21.1684L99.1512 32.3946C101.405 32.3505 103.09 31.2025 106.635 27.717L111.313 32.3946C99.2582 45.1883 89.9014 39.386 87.9249 31.4591C86.3865 22.34 93.8491 10.2531 109.442 21.1684ZM95.4091 28.6525L101.022 23.0394C97.2801 20.2329 92.6025 23.9749 95.4091 28.6525Z" fill="#EFCD3D"/>
<path d="M99.1512 32.3946L98.7826 32.0567L97.9937 32.9173L99.1609 32.8945L99.1512 32.3946ZM109.442 21.1684L109.81 21.5062L110.196 21.0858L109.729 20.7588L109.442 21.1684ZM106.635 27.717L106.989 27.3634L106.638 27.0129L106.285 27.3604L106.635 27.717ZM111.313 32.3946L111.677 32.7375L112.01 32.3842L111.666 32.041L111.313 32.3946ZM87.9249 31.4591L87.4319 31.5422L87.4351 31.5613L87.4398 31.58L87.9249 31.4591ZM95.4091 28.6525L94.9803 28.9098L95.3098 29.4589L95.7626 29.0061L95.4091 28.6525ZM101.022 23.0394L101.376 23.393L101.783 22.9853L101.322 22.6394L101.022 23.0394ZM99.5197 32.7324L109.81 21.5062L109.073 20.8305L98.7826 32.0567L99.5197 32.7324ZM106.285 27.3604C102.727 30.8581 101.173 31.855 99.1414 31.8947L99.1609 32.8945C101.637 32.8461 103.453 31.5468 106.986 28.0736L106.285 27.3604ZM111.666 32.041L106.989 27.3634L106.282 28.0705L110.959 32.7481L111.666 32.041ZM87.4398 31.58C88.4622 35.6806 91.412 39.2965 95.7388 40.1868C100.072 41.0785 105.59 39.1976 111.677 32.7375L110.949 32.0517C104.981 38.3853 99.7933 40.0002 95.9404 39.2074C92.081 38.4132 89.3641 35.1645 88.4101 31.3381L87.4398 31.58ZM109.729 20.7588C101.836 15.2336 95.8177 15.4213 91.9536 18.4051C88.1501 21.3421 86.6401 26.8489 87.4319 31.5422L88.418 31.3759C87.6713 26.9502 89.1234 21.854 92.5648 19.1966C95.9456 16.586 101.455 16.1879 109.155 21.578L109.729 20.7588ZM95.7626 29.0061L101.376 23.393L100.669 22.6859L95.0555 28.299L95.7626 29.0061ZM101.322 22.6394C99.27 21.1003 96.8971 21.3298 95.4236 22.6694C93.9356 24.0221 93.4729 26.3974 94.9803 28.9098L95.8378 28.3953C94.5387 26.2301 95.0115 24.3955 96.0962 23.4094C97.1953 22.4102 99.0322 22.172 100.722 23.4394L101.322 22.6394Z" fill="#2F68AC"/>
<path d="M95.9642 11.2262L108.126 1.87103L110.932 8.41966L109.997 9.35518L97.8352 14.9683L95.9642 11.2262Z" fill="#2C5B93" stroke="#2C5B93"/>
<path d="M100.642 13.0973L98.7707 9.35518L108.126 1.87103L110.932 8.41966L100.642 13.0973Z" fill="#EFCD3D" stroke="#2F68AC"/>
</g>
<defs>
<clipPath id="clip0_26_78">
<rect width="159" height="83" fill="white"/>
</clipPath>
</defs>
</svg>
