<svg width="188" height="50" viewBox="0 0 188 50" fill="none" xmlns="http://www.w3.org/2000/svg">
<mask id="mask0" mask-type="alpha" maskUnits="userSpaceOnUse" x="0" y="0" width="188" height="50">
<rect width="188" height="50" fill="black"/>
</mask>
<g mask="url(#mask0)">
<path d="M13.3818 36.9713L16.6725 47.6066L13.0901 48.7151L4.68427 21.5483L14.7039 18.4481C17.6768 17.5282 20.2377 17.5673 22.3865 18.5652C24.5478 19.5594 26.0152 21.3065 26.7888 23.8068C27.6048 26.4438 27.4069 28.7336 26.1951 30.6759C24.9919 32.602 22.8541 34.0404 19.7817 34.9911L13.3818 36.9713ZM12.4754 34.0419L18.9126 32.0501C20.8282 31.4574 22.1574 30.5554 22.9003 29.3442C23.6393 28.1206 23.7452 26.6567 23.2179 24.9525C22.7176 23.3355 21.8073 22.1996 20.4871 21.545C19.1669 20.8903 17.6116 20.8196 15.8213 21.3326L9.17888 23.3879L12.4754 34.0419ZM32.2993 31.5064C31.6873 29.5286 31.5225 27.6305 31.8049 25.8121C32.0998 23.9899 32.8048 22.436 33.92 21.1505C35.0476 19.8611 36.5007 18.9413 38.2795 18.3909C41.0285 17.5403 43.5433 17.8049 45.8239 19.1846C48.1169 20.5605 49.7522 22.8281 50.7298 25.9877L50.8049 26.2302C51.413 28.1956 51.5801 30.0793 51.3063 31.8814C51.0411 33.6672 50.3404 35.2129 49.2042 36.5186C48.0804 37.8204 46.6105 38.7522 44.7944 39.3142C42.0578 40.1609 39.543 39.8963 37.25 38.5205C34.9694 37.1407 33.3442 34.8836 32.3743 31.7489L32.2993 31.5064ZM35.8967 30.843C36.5895 33.0821 37.6619 34.7198 39.1139 35.7562C40.5783 36.7887 42.1812 37.0356 43.9226 36.4967C45.6765 35.954 46.858 34.8388 47.4671 33.1511C48.0723 31.4509 47.992 29.3631 47.226 26.8878C46.541 24.6736 45.4581 23.046 43.9774 22.0049C42.5053 20.9474 40.8985 20.6881 39.157 21.227C37.4529 21.7543 36.2882 22.8575 35.6628 24.5366C35.0375 26.2158 35.1154 28.3179 35.8967 30.843ZM60.9302 23.6697L59.4643 26.5971L61.6582 33.6873L58.2064 34.7554L49.3387 6.09595L52.7905 5.0279L58.1538 22.3616L59.314 19.5697L63.5466 10.9817L67.7448 9.68274L62.4991 20.5469L74.9057 29.5883L70.8568 30.8411L60.9302 23.6697ZM85.6752 26.665C82.9386 27.5117 80.4349 27.3051 78.1641 26.045C75.8894 24.7725 74.2864 22.6311 73.355 19.6209L73.1587 18.9865C72.539 16.9838 72.3661 15.0814 72.6399 13.2793C72.9223 11.4609 73.6111 9.89847 74.7061 8.59193C75.8097 7.26911 77.1638 6.35944 78.7684 5.86294C81.3931 5.05084 83.7006 5.28414 85.6909 6.56285C87.6813 7.84156 89.1749 10.0918 90.1717 13.3135L90.6162 14.7502L76.9396 18.982C77.6051 20.9568 78.682 22.3887 80.1701 23.2776C81.6668 24.1502 83.2734 24.321 84.99 23.7898C86.209 23.4126 87.1645 22.8444 87.8564 22.0851C88.5483 21.3258 89.0844 20.4376 89.4648 19.4203L92.0812 20.4099C91.1939 23.5331 89.0586 25.6181 85.6752 26.665ZM79.646 8.69904C78.2528 9.1301 77.2413 10.0019 76.6116 11.3144C75.978 12.6145 75.8321 14.2134 76.174 16.1112L86.2869 12.9821L86.2061 12.7209C85.5639 10.9978 84.6717 9.7882 83.5295 9.09212C82.3834 8.3836 81.0889 8.25257 79.646 8.69904Z" fill="black"/>
<path d="M104.112 32.6741C100.779 32.3812 98.2618 31.7171 96.5613 30.6819C94.8711 29.6313 93.8369 28.1347 93.4587 26.192C93.0308 23.9937 93.553 22.0083 95.0253 20.236C96.5079 18.4484 98.6551 17.2809 101.467 16.7336C103.384 16.3604 105.162 16.3989 106.802 16.8491C108.455 17.2968 109.817 18.0928 110.888 19.2372C111.973 20.3792 112.666 21.7234 112.967 23.2699L109.267 23.9902C108.938 22.3031 108.144 21.0848 106.884 20.3352C105.621 19.5728 104.012 19.382 102.057 19.7627C100.242 20.116 98.9014 20.7947 98.0356 21.799C97.1802 22.7879 96.8906 23.9918 97.1668 25.4104C97.3882 26.5479 98.0553 27.4196 99.1681 28.0254C100.291 28.616 102.073 29.012 104.513 29.2135C106.966 29.4125 108.922 29.7813 110.38 30.3199C111.848 30.8433 112.997 31.5681 113.827 32.4942C114.67 33.4178 115.23 34.589 115.506 36.0076C115.947 38.2699 115.418 40.2564 113.92 41.9673C112.42 43.6655 110.194 44.8019 107.242 45.3766C105.325 45.7498 103.464 45.7339 101.661 45.3288C99.8552 44.911 98.3742 44.1513 97.2179 43.0499C96.0745 41.946 95.3448 40.5824 95.0288 38.9592L98.7289 38.239C99.0573 39.926 99.9371 41.141 101.368 41.8838C102.81 42.6113 104.573 42.7723 106.656 42.3667C108.599 41.9885 110.01 41.3025 110.891 40.3085C111.772 39.3146 112.08 38.1338 111.814 36.7663C111.547 35.3987 110.863 34.4376 109.76 33.8829C108.655 33.3154 106.772 32.9125 104.112 32.6741ZM120.863 15.5844L121.84 20.6073L125.713 19.8534L126.247 22.5949L122.374 23.3488L124.878 36.2128C125.04 37.0436 125.334 37.6362 125.762 37.9908C126.186 38.3326 126.814 38.4227 127.645 38.261C128.054 38.1813 128.601 37.9952 129.287 37.7025L129.847 40.5782C128.964 41.0154 128.081 41.3199 127.199 41.4916C125.614 41.8001 124.326 41.5534 123.334 40.7516C122.342 39.9498 121.675 38.667 121.331 36.9032L118.827 24.0392L115.051 24.7744L114.517 22.0329L118.294 21.2977L117.316 16.2748L120.863 15.5844ZM130.532 29.4811C130.136 27.4489 130.177 25.5441 130.653 23.7667C131.142 21.9868 132.011 20.5178 133.258 19.3597C134.517 18.1992 136.061 17.441 137.889 17.0852C140.713 16.5354 143.185 17.069 145.304 18.6861C147.436 20.3007 148.817 22.7312 149.449 25.9776L149.498 26.2268C149.891 28.2462 149.855 30.1369 149.388 31.8991C148.933 33.646 148.07 35.1074 146.799 36.2832C145.542 37.4565 143.981 38.2248 142.114 38.588C139.303 39.1354 136.831 38.6018 134.699 36.9872C132.58 35.37 131.208 32.9511 130.581 29.7303L130.532 29.4811ZM134.18 29.2087C134.628 31.5093 135.518 33.2528 136.85 34.4395C138.195 35.6236 139.762 36.0415 141.551 35.6932C143.353 35.3423 144.648 34.3607 145.435 32.7483C146.219 31.1231 146.364 29.0388 145.869 26.4954C145.426 24.2204 144.525 22.4857 143.165 21.2913C141.815 20.0816 140.245 19.6509 138.456 19.9993C136.705 20.3401 135.428 21.3116 134.626 22.9137C133.824 24.5158 133.675 26.6142 134.18 29.2087ZM162.528 15.9898C161.974 16.0048 161.384 16.0733 160.757 16.1952C158.431 16.648 157.046 17.9458 156.6 20.0886L159.467 34.8122L155.92 35.5026L151.882 14.7592L155.333 14.0874L155.857 16.4726C156.659 14.393 158.127 13.1454 160.262 12.7299C160.952 12.5956 161.493 12.583 161.886 12.6923L162.528 15.9898ZM177.524 31.6949C174.712 32.2423 172.245 31.7674 170.123 30.2703C167.999 28.7605 166.635 26.459 166.033 23.366L165.906 22.7142C165.506 20.6565 165.539 18.7465 166.005 16.9844C166.481 15.2069 167.334 13.7277 168.563 12.5465C169.803 11.3501 171.247 10.5915 172.896 10.2705C175.592 9.74552 177.861 10.2258 179.703 11.7112C181.544 13.1967 182.787 15.5945 183.431 18.9048L183.718 20.381L169.666 23.1166C170.115 25.1515 171.032 26.691 172.415 27.7349C173.809 28.7635 175.388 29.1061 177.152 28.7627C178.405 28.5189 179.416 28.0568 180.185 27.3764C180.955 26.6959 181.584 25.8705 182.071 24.9001L184.566 26.1654C183.348 29.175 181 31.0182 177.524 31.6949ZM173.463 13.1845C172.032 13.4632 170.932 14.2211 170.165 15.4582C169.395 16.6826 169.078 18.2565 169.214 20.1801L179.604 18.1573L179.552 17.8889C179.099 16.1067 178.342 14.8082 177.282 13.9932C176.218 13.1655 174.946 12.8959 173.463 13.1845Z" fill="black"/>
</g>
</svg>
