<svg width="100" height="100" viewBox="0 0 100 100" fill="none" xmlns="http://www.w3.org/2000/svg">
<path fill-rule="evenodd" clip-rule="evenodd" d="M63 67C79.5685 67 93 53.5685 93 37C93 20.4315 79.5685 7 63 7C46.4315 7 33 20.4315 33 37C33 53.5685 46.4315 67 63 67ZM63 62C76.8071 62 88 50.8071 88 37C88 23.1929 76.8071 12 63 12C49.1929 12 38 23.1929 38 37C38 50.8071 49.1929 62 63 62Z" fill="black"/>
<rect x="43.2441" y="52.8888" width="6.14308" height="50" rx="3" transform="rotate(45 43.2441 52.8888)" fill="black"/>
</svg>
