<svg width="100" height="100" viewBox="0 0 100 100" fill="none" xmlns="http://www.w3.org/2000/svg">
<path d="M13 72C44.3512 62.3646 58.7502 49.5956 83 23.5C118.5 64.5 55 126.5 13 72Z" fill="white"/>
<path d="M84.5 22L73 35.5C71 47 76.5 61 44.5 94C92.5 96.5 105.5 46 84.5 22Z" fill="#E9E9E9"/>
<path d="M12 72.5C33.5 65 61 50 84.5 22C51.3142 -16.9801 -13.927 19.8673 12 72.5Z" fill="#DF0000" stroke="black"/>
<path d="M72 34.5C63.8354 16.9427 56.1133 11.214 37 8C57.0021 3.15262 67.4158 6.18388 84.5 22L72 34.5Z" fill="#B50000"/>
<path d="M11.5 72.5C45.1374 59.5698 61.1381 48.4964 84.5 22" stroke="black" stroke-width="4"/>
<circle cx="53" cy="52" r="11" fill="white" stroke="black" stroke-width="4"/>
<circle cx="53" cy="52" r="5" stroke="#D6D6D6" stroke-width="2"/>
<path d="M26.5 42.5C25.3072 47.3045 22.8534 51.3921 19.4186 50.5393C15.9839 49.6866 13.8072 46.3045 15 41.5C16.1928 36.6955 21.0652 30.1473 24.5 31C27.9348 31.8527 27.6928 37.6955 26.5 42.5Z" fill="#FBFBFB"/>
<circle cx="50" cy="50" r="42.5" stroke="black" stroke-width="5"/>
</svg>
